<?xml version="1.0" encoding="UTF-8" standalone="no"?>
<!-- Created with Inkscape (http://www.inkscape.org/) -->

<svg
   xmlns:dc="http://purl.org/dc/elements/1.1/"
   xmlns:cc="http://creativecommons.org/ns#"
   xmlns:rdf="http://www.w3.org/1999/02/22-rdf-syntax-ns#"
   xmlns:svg="http://www.w3.org/2000/svg"
   xmlns="http://www.w3.org/2000/svg"
   xmlns:sodipodi="http://sodipodi.sourceforge.net/DTD/sodipodi-0.dtd"
   xmlns:inkscape="http://www.inkscape.org/namespaces/inkscape"
   id="svg3457"
   version="1.1"
   inkscape:version="0.91 r13725"
   xml:space="preserve"
   width="2294.2446"
   height="343.50766"
   viewBox="0 0 2294.2446 343.50766"
   sodipodi:docname="ca_rule_scheme.svg"><metadata
     id="metadata3463"><rdf:RDF><cc:Work
         rdf:about=""><dc:format>image/svg+xml</dc:format><dc:type
           rdf:resource="http://purl.org/dc/dcmitype/StillImage" /><dc:title></dc:title></cc:Work></rdf:RDF></metadata><defs
     id="defs3461" /><sodipodi:namedview
     pagecolor="#ffffff"
     bordercolor="#666666"
     borderopacity="1"
     objecttolerance="10"
     gridtolerance="10"
     guidetolerance="10"
     inkscape:pageopacity="0"
     inkscape:pageshadow="2"
     inkscape:window-width="1920"
     inkscape:window-height="1031"
     id="namedview3459"
     showgrid="false"
     inkscape:zoom="0.16999059"
     inkscape:cx="1147.1223"
     inkscape:cy="171.75383"
     inkscape:window-x="0"
     inkscape:window-y="25"
     inkscape:window-maximized="1"
     inkscape:current-layer="g3465" /><g
     id="g3465"
     inkscape:groupmode="layer"
     inkscape:label="ca_rule_scheme"
     transform="matrix(1.25,0,0,-1.25,0,343.50765)"><path
       inkscape:connector-curvature="0"
       id="path3469"
       style="fill:#ffffff;fill-opacity:1;fill-rule:nonzero;stroke:#000000;stroke-width:4;stroke-linecap:butt;stroke-linejoin:miter;stroke-miterlimit:4;stroke-dasharray:none;stroke-opacity:1"
       d="m 98.246,272.349 123.43,0 0,-123.43 -123.43,0 0,123.43 z" /><path
       inkscape:connector-curvature="0"
       id="path3471"
       style="fill:#ffffff;fill-opacity:1;fill-rule:nonzero;stroke:#000000;stroke-width:4;stroke-linecap:butt;stroke-linejoin:miter;stroke-miterlimit:4;stroke-dasharray:none;stroke-opacity:1"
       d="m 221.676,272.349 123.43,0 0,-123.43 -123.43,0 0,123.43 z" /><path
       inkscape:connector-curvature="0"
       id="path3473"
       style="fill:#ffffff;fill-opacity:1;fill-rule:nonzero;stroke:#000000;stroke-width:4;stroke-linecap:butt;stroke-linejoin:miter;stroke-miterlimit:4;stroke-dasharray:none;stroke-opacity:1"
       d="m 221.902,148.693 123.43,0 0,-123.43 -123.43,0 0,123.43 z" /><path
       inkscape:connector-curvature="0"
       id="path3475"
       style="fill:#ffffff;fill-opacity:1;fill-rule:nonzero;stroke:#000000;stroke-width:4;stroke-linecap:butt;stroke-linejoin:miter;stroke-miterlimit:4;stroke-dasharray:none;stroke-opacity:1"
       d="m 346.246,272.806 123.43,0 0,-123.43 -123.43,0 0,123.43 z" /><text
       id="text3477"
       style="font-variant:normal;font-weight:normal;font-size:48px;font-family:'DejaVu Sans';-inkscape-font-specification:DejaVuSans;writing-mode:lr-tb;fill:#000000;fill-opacity:1;fill-rule:nonzero;stroke:none"
       transform="scale(1,-1)"
       x="504.03955"
       y="-226.95772"><tspan
         id="tspan3479"
         sodipodi:role="line"
         y="-226.95772"
         x="504.03955 544.21558 559.43152 589.95953 620.48755 635.55957 668.43951 683.65552 714.18353 760.02356 792.90356 808.11951 838.64752">= 24 X 24X 24</tspan><tspan
         id="tspan3481"
         sodipodi:role="line"
         y="-166.95772"
         x="504.03955 564.85553 595.38354 626.05554 686.87152 717.39954 747.92755 778.45551 793.67151 827.89551 860.72754 885.68756 900.90356 915.97552 952.02356 967.23956 982.45551 1012.7435 1027.9595 1043.1755 1076.6796 1091.7515 1106.9675 1147.1436"> 24 {20 AAs, H, E, C, #}</tspan><tspan
         id="tspan3483"
         sodipodi:role="line"
         y="-69.984375"
         x="510.97339 551.14941 566.36542 596.89337">= 4 </tspan><tspan
         id="tspan3485"
         sodipodi:role="line"
         y="-9.9843769"
         x="571.8374 602.36542 678.54138 709.0694 745.11737 760.33337 775.54938 805.8374 821.05341 836.12537 869.77338 884.98938 900.20538 925.64539 956.02936 971.3894 1000.7173 1031.1013 1061.3894 1090.9093 1106.1254 1131.5653 1146.6373 1165.4534 1194.9734 1225.4054 1244.1254 1273.6454 1298.6053 1328.1254 1358.5094 1377.3253 1406.5574 1421.7733 1451.1013 1451.1013 1451.1013 1466.3174 1495.8374 1520.7974 1539.6134 1568.9894 1599.4214 1628.6053">4 {H, E, C, ?} onde ? representa o   estado inicial (AA)</tspan></text>
<text
       id="text3487"
       style="font-style:oblique;font-variant:normal;font-size:48px;font-family:'DejaVu Sans';-inkscape-font-specification:DejaVuSans-Oblique;writing-mode:lr-tb;fill:#000000;fill-opacity:1;fill-rule:nonzero;stroke:none"
       transform="scale(1,-1)"
       x="0.88727897"
       y="-188.06294"><tspan
         id="tspan3489"
         y="-188.06294"
         x="0.88727897">t</tspan></text>
<text
       id="text3491"
       style="font-style:oblique;font-variant:normal;font-size:32px;font-family:'DejaVu Sans';-inkscape-font-specification:DejaVuSans-Oblique;writing-mode:lr-tb;fill:#000000;fill-opacity:1;fill-rule:nonzero;stroke:none"
       transform="scale(1,-1)"
       x="19.731001"
       y="-178.46294"><tspan
         id="tspan3493"
         y="-178.46294"
         x="19.731001">i</tspan></text>
<text
       id="text3495"
       style="font-style:oblique;font-variant:normal;font-size:48px;font-family:'DejaVu Sans';-inkscape-font-specification:DejaVuSans-Oblique;writing-mode:lr-tb;fill:#000000;fill-opacity:1;fill-rule:nonzero;stroke:none"
       transform="scale(1,-1)"
       x="-3.070312"
       y="-66.285561"><tspan
         id="tspan3497"
         y="-66.285561"
         x="-3.070312">t</tspan></text>
<text
       id="text3499"
       style="font-style:oblique;font-variant:normal;font-size:31.20000076px;font-family:'DejaVu Sans';-inkscape-font-specification:DejaVuSans-Oblique;writing-mode:lr-tb;fill:#000000;fill-opacity:1;fill-rule:nonzero;stroke:none"
       transform="scale(1,-1)"
       x="15.773437"
       y="-56.685562"><tspan
         id="tspan3501"
         sodipodi:role="line"
         y="-56.685562"
         x="15.773437 24.415838 50.530239">i+1</tspan></text>
<path
       inkscape:connector-curvature="0"
       id="path3503"
       style="fill:none;stroke:#000000;stroke-width:4;stroke-linecap:butt;stroke-linejoin:miter;stroke-miterlimit:4;stroke-dasharray:none;stroke-opacity:1"
       d="m 630.359,182.205 49.129,-1.489" /><g
       transform="matrix(-1,0.0303029,0.0303029,1,0,274.80612)"
       id="g3505"><path
         inkscape:connector-curvature="0"
         id="path3507"
         style="fill:#000000;fill-opacity:1;fill-rule:evenodd;stroke:#000000;stroke-width:1.49931204;stroke-linecap:butt;stroke-linejoin:round;stroke-miterlimit:4;stroke-dasharray:none;stroke-opacity:1"
         d="m -660.795,-63.757 -26.21,-9.636 26.208,-9.638 c -4.187,5.69 -4.162,13.474 0.002,19.274 z" /></g><path
       inkscape:connector-curvature="0"
       id="path3509"
       style="fill:none;stroke:#000000;stroke-width:4;stroke-linecap:butt;stroke-linejoin:miter;stroke-miterlimit:4;stroke-dasharray:none;stroke-opacity:1"
       d="m 616.426,26.603 49.125,-1.488" /><g
       transform="matrix(-1,0.0303029,0.0303029,1,0,274.80612)"
       id="g3511"><path
         inkscape:connector-curvature="0"
         id="path3513"
         style="fill:#000000;fill-opacity:1;fill-rule:evenodd;stroke:#000000;stroke-width:1.49931204;stroke-linecap:butt;stroke-linejoin:round;stroke-miterlimit:4;stroke-dasharray:none;stroke-opacity:1"
         d="m -651.585,-219.638 -26.21,-9.639 26.211,-9.638 c -4.19,5.693 -4.165,13.478 -0.001,19.277 z" /></g></g></svg>